<?xml version="1.0" ?><!DOCTYPE svg  PUBLIC '-//W3C//DTD SVG 1.1//EN'  'http://www.w3.org/Graphics/SVG/1.1/DTD/svg11.dtd'><svg enable-background="new 0 0 50 50" height="50px" id="Layer_1" version="1.1" viewBox="0 0 50 50" width="50px" xml:space="preserve" xmlns="http://www.w3.org/2000/svg" xmlns:xlink="http://www.w3.org/1999/xlink"><path d="M38.084,7.398c-8.531-8.53-22.36-8.53-30.89,0c-8.53,8.53-8.53,22.36,0,30.89  c7.331,7.33,18.566,8.341,26.998,3.074l8.132,8.13c1.757,1.756,4.604,1.756,6.359,0c1.757-1.757,1.757-4.603,0-6.357l-8.002-8  C46.486,26.63,45.629,14.943,38.084,7.398z M32.632,32.836c-5.518,5.52-14.467,5.52-19.986,0c-5.519-5.519-5.519-14.468,0-19.988  c5.519-5.518,14.468-5.518,19.986,0C38.154,18.368,38.154,27.317,32.632,32.836z" fill="#231F20"/></svg>