<?xml version="1.0" ?>
<!DOCTYPE svg  PUBLIC '-//W3C//DTD SVG 1.1//EN'  'http://www.w3.org/Graphics/SVG/1.1/DTD/svg11.dtd'>
<svg>
  <symbol id="facebook" enable-background="new 0 0 512 512" version="1.1" viewBox="0 0 512 512" xml:space="preserve" xmlns="http://www.w3.org/2000/svg" xmlns:xlink="http://www.w3.org/1999/xlink"><g><g id="Guides"/><g id="Layer_2"><g><path d="M507,257c0,138.066-111.934,250-250,250C118.933,507,7,395.066,7,257C7,118.933,118.933,7,257,7      C395.066,7,507,118.933,507,257L507,257z M507,257"/><path d="M319.843,266.792h-44.608v163.417h-67.583V266.792h-32.143v-57.449h32.143v-37.16      c0-26.572,12.618-68.201,68.192-68.201l50.048,0.217v55.752h-36.317c-5.962,0-14.34,2.979-14.34,15.646v33.815h50.527      L319.843,266.792z M319.843,266.792" fill="#FFFFFF"/></g></g></g>
  </symbol>
  <symbol enable-background="new 0 0 711.071 705.07" id="mail" version="1.1" viewBox="0 0 711.071 705.07" xml:space="preserve" xmlns="http://www.w3.org/2000/svg" xmlns:xlink="http://www.w3.org/1999/xlink"><circle cx="332.953" cy="359.02"  r="322.668"/><g><path d="M165.167,254.835l103.448,97.45L165.167,458.232V254.835z M499.999,476.723H184.657l103.448-105.447   l53.974,50.975l54.972-51.975L499.999,476.723z M494.002,228.348L342.079,372.775L190.155,228.348H494.002z M519.489,254.835   v203.397L416.541,351.785L519.489,254.835z" fill="#FFFFFF"/></g>
  </symbol>
  <symbol id="vk" enable-background="new 0 0 512 512" version="1.1" viewBox="0 0 512 512" xml:space="preserve" xmlns="http://www.w3.org/2000/svg" xmlns:xlink="http://www.w3.org/1999/xlink"><g><g id="Guides"/><g id="Layer_2"><g><path d="M508,256.879c0,138.066-111.934,250-250,250c-138.067,0-250-111.934-250-250      c0-138.067,111.933-250,250-250C396.066,6.879,508,118.812,508,256.879L508,256.879z M508,256.879"/><path clip-rule="evenodd" d="M248.557,366.527h19.627c0,0,5.919-0.647,8.943-3.917      c2.78-2.997,2.698-8.617,2.698-8.617s-0.392-26.329,11.837-30.202c12.056-3.83,27.505,25.438,43.912,36.687      c12.403,8.53,21.825,6.659,21.825,6.659l43.824-0.609c0,0,22.936-1.414,12.056-19.448c-0.893-1.485-6.332-13.344-32.597-37.715      c-27.482-25.503-23.806-21.391,9.313-65.52c20.171-26.874,28.223-43.278,25.72-50.309c-2.415-6.702-17.233-4.917-17.233-4.917      l-49.374,0.304c0,0-3.655-0.5-6.375,1.11c-2.655,1.588-4.353,5.31-4.353,5.31s-7.812,20.805-18.234,38.469      c-21.978,37.343-30.769,39.301-34.359,36.995c-8.355-5.419-6.267-21.714-6.267-33.291c0-36.17,5.483-51.25-10.685-55.142      c-5.353-1.303-9.313-2.157-23.021-2.285c-17.625-0.196-32.531,0.046-40.974,4.178c-5.614,2.742-9.944,8.881-7.311,9.226      c3.264,0.433,10.662,2.004,14.579,7.336c5.048,6.874,4.874,22.32,4.874,22.32s2.916,42.587-6.789,47.874      c-6.659,3.64-15.776-3.786-35.382-37.647c-10.031-17.34-17.604-36.508-17.604-36.508s-1.458-3.571-4.069-5.489      c-3.177-2.329-7.594-3.063-7.594-3.063l-46.895,0.302c0,0-7.048,0.193-9.637,3.264c-2.285,2.717-0.171,8.356-0.171,8.356      s36.707,85.909,78.29,129.194C205.254,369.139,248.557,366.527,248.557,366.527L248.557,366.527z M248.557,366.527" fill="#FFFFFF" fill-rule="evenodd"/></g></g></g>
  </symbol>
  <symbol id="phone" style="enable-background:new 0 0 512 512;" version="1.1" viewBox="0 0 512 512" xml:space="preserve" xmlns="http://www.w3.org/2000/svg" xmlns:xlink="http://www.w3.org/1999/xlink"><path d="M351.5,339.3c-18.8-4.1-41.3,3.1-49.4,20.6c-4.7,10.1-5.4,23.9-15.6,28.4c-7.3,3.3-15.7-0.4-22.7-4.3  c-34.4-19.2-103.4-156.4-98.2-195.5c1-7.9,3.2-16.9,10.1-20.8c9.7-5.5,21.2,2.2,32.1,4.4c18.9,4,38-9.8,46-27.3  c8-17.5,7.1-37.8,4.4-56.9c-3.2-22.3-9.2-45.2-24-62.1c-42.2-48-104.5,0.4-129.4,40.9C88.8,92.8,80,122.7,75.8,152.8  C66.7,217,182,446.4,239,477.5c26.7,14.6,55.9,25.3,86.2,28c47.4,4.2,123.4-16.9,110.1-79.4c-4.7-22-19.5-40.5-35.5-56.3  C386,356.2,370.3,343.4,351.5,339.3z" id="XMLID_1_"/>
  </symbol>
  <symbol enable-background="new 0 0 50 50" id="search" version="1.1" viewBox="0 0 50 50" xml:space="preserve" xmlns="http://www.w3.org/2000/svg" xmlns:xlink="http://www.w3.org/1999/xlink"><path d="M38.084,7.398c-8.531-8.53-22.36-8.53-30.89,0c-8.53,8.53-8.53,22.36,0,30.89  c7.331,7.33,18.566,8.341,26.998,3.074l8.132,8.13c1.757,1.756,4.604,1.756,6.359,0c1.757-1.757,1.757-4.603,0-6.357l-8.002-8  C46.486,26.63,45.629,14.943,38.084,7.398z M32.632,32.836c-5.518,5.52-14.467,5.52-19.986,0c-5.519-5.519-5.519-14.468,0-19.988  c5.519-5.518,14.468-5.518,19.986,0C38.154,18.368,38.154,27.317,32.632,32.836z"/>
  </symbol>
</svg>